<svg xmlns="http://www.w3.org/2000/svg" width="530" height="530" viewBox="0 0 530 530"><defs><style>.cls-1,.cls-5{fill:none;stroke-miterlimit:10;}.cls-1{stroke:#a19f9d;stroke-width:5px;}.cls-2{fill:#cccbc9;}.cls-3{fill:#a19f9d;}.cls-4{fill:#8a8a8a;}.cls-5{stroke:#8a8a8a;stroke-width:3px;}</style></defs><g id="Art"><circle class="cls-1" cx="267.22" cy="265" r="253.46"/><path class="cls-2" d="M236.74,287s.2,21.06-22,41.74c0,0,14,22.92,45,21.16s38.05-16.54,38.05-16.54-14.38-11.57-16.28-23.88C281.53,309.44,259.47,310.86,236.74,287Z"/><path class="cls-3" d="M300.89,151.69s-24-26.55-60.49-22.57c0,0-47.71,5-67.21,58.09s5.8,145.64,21.16,155.6c0,0,42.46-20.64,42.39-55.85,0,0-48.14-55.69-8.55-107.18C228.19,179.78,251.89,148.5,300.89,151.69Z"/><path class="cls-2" d="M300.89,252.54l25.47-6-2.83-46.22s-4.39-32-22.64-48.58c0,0-46.92-7.44-75.11,26.14-16.26,19.37-14.59,42.57-14.59,42.57s-16.83-3.47-15.55,16.62c1.14,18,20.82,15.13,20.82,15.13S227.24,290,261.74,305c31.82,13.81,38.68-8.35,38.68-8.35Z"/><path class="cls-4" d="M154.82,421.07s-4-37.93,20.77-62.11,39.16-30.26,39.16-30.26,14.18,23.22,45,21.16,38.05-16.54,38.05-16.54,20.13,16.63,46.72,18.51c30.69,2.17,32.86,36.27,32.86,36.27l4.34,33Z"/><path class="cls-3" d="M395.66,421.07h-259v-318h259ZM416.1,82.12H115.38V442.68H416.1Z"/><circle class="cls-5" cx="245.02" cy="221.66" r="5.38"/><path class="cls-5" d="M218.6,205.34c6.16-2.61,30.82-12.26,52.84-.5"/><path class="cls-5" d="M218.6,214.67c6.16-2.61,30.82-12.26,52.84-.5"/><path class="cls-5" d="M256.13,234.48a31.67,31.67,0,0,0,9.5-12.61s-17.62-13.14-39.93-.42c0,0,15.74,13.66,39.93.42"/><path class="cls-5" d="M278.08,169.86s10.27-9.3,31.17-6.43"/><path class="cls-5" d="M313.79,171.7a48.19,48.19,0,0,0-34.53,5.94v8.63h30.79s-2.87,7.45-8.8,12"/><circle class="cls-5" cx="291.1" cy="192.2" r="5.38"/><line class="cls-5" x1="290.69" y1="246.84" x2="302.36" y2="243.96"/><line class="cls-5" x1="308.96" y1="243.29" x2="320.13" y2="240.75"/><line class="cls-5" x1="264.6" y1="270.21" x2="300.68" y2="270.21"/><path class="cls-5" d="M271.41,264.6l6.71-6a2.92,2.92,0,0,1,3.67-.21l3.16,2.25a2.93,2.93,0,0,0,3.61-.15l2.24-1.91a3,3,0,0,1,3.74-.05l5.3,4.24"/><path class="cls-5" d="M271,275.1s16.76,14.89,28.43,0"/></g></svg>