<svg xmlns="http://www.w3.org/2000/svg" viewBox="0 0 530 530">
  <defs>
    <style>
      .cls-1, .cls-3, .cls-5 {
        fill: none;
      }

      .cls-1, .cls-3, .cls-4, .cls-5 {
        stroke: #a19f9d;
        stroke-miterlimit: 10;
      }

      .cls-1 {
        stroke-width: 6.55px;
      }

      .cls-2 {
        fill: #8a8a8a;
      }

      .cls-3 {
        stroke-width: 4.37px;
      }

      .cls-4 {
        fill: #fff;
      }

      .cls-4, .cls-5 {
        stroke-width: 5.18px;
      }

      .cls-6 {
        fill: #a19f9d;
      }
    </style>
  </defs>
  <g id="Bar">
    <circle class="cls-1" cx="264.26" cy="264.53" r="253.46"/>
    <g>
      <path class="cls-2" d="M291.41,260.2c0,81.26,106.84,84.45,106.84,0"/>
      <ellipse class="cls-2" cx="344.83" cy="260.2" rx="53.42" ry="9.86"/>
    </g>
    <ellipse class="cls-3" cx="344.87" cy="429.67" rx="54.79" ry="8.46"/>
    <path class="cls-4" d="M362.2,428.44c22.22,1-56,1.17-36.59-.77,27.66-2.76,12-104.4,12-104.4H352S343.44,427.6,362.2,428.44Z"/>
    <ellipse class="cls-5" cx="344.34" cy="229.57" rx="56.32" ry="14.86"/>
    <path class="cls-5" d="M288,229.57c0,122.51,112.64,127.33,112.64,0"/>
    <path class="cls-6" d="M181.34,51.65V158.89a36.42,36.42,0,0,1-1.79,11.29L146.26,272.45l-.11.31a69.53,69.53,0,0,0-4.27,24V446.26h0c4.23,8.28,12.74,13.49,21.43,16.36h74.94c11-2.87,17-9.38,20.6-19.16h0V296.84a69.72,69.72,0,0,0-4.31-24.13l-.09-.26L220.76,170.24a36.34,36.34,0,0,1-1.83-11.42V51.65a3.32,3.32,0,0,0-3.32-3.32h-31A3.32,3.32,0,0,0,181.34,51.65Z"/>
    <path class="cls-2" d="M141.88,297.14,169,301.91a181.08,181.08,0,0,0,62.65,0l27.16-4.77v78.57l-16,3a229.4,229.4,0,0,1-85,0l-16-3Z"/>
  </g>
</svg>
