<svg xmlns="http://www.w3.org/2000/svg" width="530" height="530" viewBox="0 0 530 530"><defs><style>.cls-1,.cls-3,.cls-7{fill:#cccbc9;}.cls-2,.cls-5{fill:none;}.cls-2,.cls-3,.cls-5,.cls-7{stroke:#a19f9d;stroke-miterlimit:10;}.cls-2{stroke-width:6.55px;}.cls-3,.cls-5{stroke-width:5px;}.cls-4{fill:#a19f9d;}.cls-6{fill:#8a8a8a;}.cls-7{stroke-width:1.26px;}</style></defs><g id="Events"><polygon class="cls-1" points="165.93 416.93 220.87 427.12 329.36 427.12 364.07 416.93 395.07 351.09 140.74 351.09 165.93 416.93"/><circle class="cls-2" cx="266.48" cy="264.53" r="253.46"/><path class="cls-3" d="M83.84,117.68V412.52s9,9.79,24.85,6,27.87.87,27.87.87,23.34,8.17,29.37-3.88-41.05-158.91-41.05-158.91,52.54-44.41,54.6-138.94Z"/><path class="cls-4" d="M155,131.56a1,1,0,0,1,1.06,1.11c-.57,8.76-11.59,76.68-42.28,115,0,0,23.17-37.45,28.18-114.25a2,2,0,0,1,1.93-1.9Z"/><path class="cls-4" d="M101,247.71S129.44,188,125.83,133.4a2,2,0,0,0-2.06-1.84H114a2.18,2.18,0,0,0-2.14,2.41C113.79,162.63,113.57,187.07,101,247.71Z"/><path class="cls-4" d="M113.57,260.71l8.35,22.07a110.91,110.91,0,0,1,6,22.93L133.36,342a134.59,134.59,0,0,0,4.75,20.6l13.9,44.1-18.93-36.56a85.33,85.33,0,0,1-9.47-35.52l-1.26-29.05a102.7,102.7,0,0,0-2.7-19.35Z"/><path class="cls-4" d="M98.43,260.71l7.1,48.52A135,135,0,0,1,107,328.81V355.1a161.16,161.16,0,0,0,3.28,32.34l3.55,17.27L109,396.6A82.83,82.83,0,0,1,98,344.24l1.9-15.51a103,103,0,0,0,.68-17Z"/><path class="cls-3" d="M446.16,117.68V412.52s-9,9.79-24.85,6-27.87.87-27.87.87-23.34,8.17-29.37-3.88,41.05-158.91,41.05-158.91-52.54-44.41-54.6-138.94Z"/><path class="cls-4" d="M375,131.56a1,1,0,0,0-1.06,1.11c.57,8.76,11.59,76.68,42.28,115,0,0-23.17-37.45-28.18-114.25a2,2,0,0,0-1.93-1.9Z"/><path class="cls-4" d="M429,247.71S400.56,188,404.17,133.4a2,2,0,0,1,2.06-1.84h9.82a2.18,2.18,0,0,1,2.14,2.41C416.21,162.63,416.43,187.07,429,247.71Z"/><path class="cls-4" d="M416.43,260.71l-8.35,22.07a110.91,110.91,0,0,0-6,22.93L396.64,342a134.59,134.59,0,0,1-4.75,20.6L378,406.74l18.93-36.56a85.33,85.33,0,0,0,9.47-35.52l1.26-29.05a102.7,102.7,0,0,1,2.7-19.35Z"/><path class="cls-4" d="M431.57,260.71l-7.1,48.52A135,135,0,0,0,423,328.81V355.1a161.16,161.16,0,0,1-3.28,32.34l-3.55,17.27,4.8-8.11A82.83,82.83,0,0,0,432,344.24l-1.9-15.51a103,103,0,0,1-.68-17Z"/><line class="cls-5" x1="277.02" y1="378.93" x2="277.02" y2="250.26"/><line class="cls-5" x1="251.53" y1="384" x2="278.47" y2="375.45"/><line class="cls-5" x1="302.95" y1="384" x2="276.02" y2="375.45"/><polygon class="cls-6" points="261.35 218.77 312.27 247.08 312.67 251.47 317.59 254.78 315.1 260.32 309.22 259.15 305.68 261.76 250.69 242.5 261.35 218.77"/><ellipse class="cls-7" cx="244.14" cy="225.63" rx="17.29" ry="18.74" transform="translate(-45.47 388.85) rotate(-72.15)"/><path class="cls-4" d="M274.65,250.92l-5.17-1.83s.57-7.5,4-11l13.74,6.14a17.33,17.33,0,0,0-2.46,10.16Z"/></g></svg>