<svg xmlns="http://www.w3.org/2000/svg" viewBox="0 0 530 530">
  <defs>
    <style>
      .cls-1 {
        fill: none;
        stroke-width: 5px;
      }

      .cls-1, .cls-2, .cls-3, .cls-4 {
        stroke: #a19f9d;
        stroke-miterlimit: 10;
      }

      .cls-2 {
        fill: #cccbc9;
      }

      .cls-2, .cls-3 {
        stroke-width: 4.69px;
      }

      .cls-3, .cls-4 {
        fill: #8a8a8a;
      }

      .cls-4 {
        stroke-width: 4.79px;
      }
    </style>
  </defs>
  <g id="Giveback">
    <circle class="cls-1" cx="265" cy="265" r="253.46"/>
    <g>
      <path class="cls-2" d="M265.73,136.39,429.25,298.92h0c3.56,22.93-20.17,37.87-38.75,30.41h0l-83.56-80.39,83.56,80.39h0l.19,5.66a27.74,27.74,0,0,1-3.13,14.13,29.82,29.82,0,0,1-3.39,5c-6.85,8.2-18,11.46-28.4,9.08l-.65-.15h0l-81.25-77.56L355.1,363h0l-.19,12.66a30.21,30.21,0,0,1-5.78,17.83,32.91,32.91,0,0,1-3,3.45,30.71,30.71,0,0,1-21.75,8.59l-37-8.27L170.59,271h0L126.5,313.33h0c-.1-.09-112.41-96.8-5.81-185.07,72.52-60.05,145,8.12,145,8.12Z"/>
      <path class="cls-3" d="M190.49,220.86l84.95-80.35s79.28-72.14,153.81,9.18c71.58,78.09,0,149.23,0,149.23L317.64,188.36a14.07,14.07,0,0,0-20,.16L252.49,232.8S233.13,254.56,190.49,220.86Z"/>
      <path class="cls-4" d="M124.39,320c.22,16.27,9,27.06,24.06,29.76a21.47,21.47,0,0,0,18.82-6.05l36.64-36.33a21.85,21.85,0,0,0,6.29-18.89c-2.52-15.61-13-24.77-29.62-24.26a21.86,21.86,0,0,0-14.49,6.14l-35,33.84A21.65,21.65,0,0,0,124.39,320Z"/>
      <path class="cls-4" d="M161.13,358.92c.22,16.27,9,27.06,24.06,29.76A21.45,21.45,0,0,0,204,382.62l36.64-36.33a21.8,21.8,0,0,0,6.28-18.89c-2.51-15.61-13-24.77-29.61-24.26a21.86,21.86,0,0,0-14.49,6.14l-35,33.84A21.66,21.66,0,0,0,161.13,358.92Z"/>
      <path class="cls-4" d="M197.89,397.83c.23,16.27,9,27.06,24.07,29.76a21.48,21.48,0,0,0,18.82-6l36.64-36.33a21.82,21.82,0,0,0,6.28-18.89c-2.51-15.62-13-24.78-29.62-24.26a21.76,21.76,0,0,0-14.48,6.14l-35,33.84A21.69,21.69,0,0,0,197.89,397.83Z"/>
      <path class="cls-4" d="M236.69,434.75c.23,16.27,9,27.06,24.06,29.76a21.45,21.45,0,0,0,18.82-6.06l36.65-36.33a21.8,21.8,0,0,0,6.28-18.89c-2.52-15.61-13-24.77-29.62-24.26a21.86,21.86,0,0,0-14.49,6.15L243.4,419A21.7,21.7,0,0,0,236.69,434.75Z"/>
    </g>
  </g>
</svg>
