<svg xmlns="http://www.w3.org/2000/svg" width="530" height="530" viewBox="0 0 530 530"><defs><style>.cls-1{fill:none;}.cls-1,.cls-2{stroke:#a19f9d;stroke-miterlimit:10;stroke-width:5px;}.cls-2{fill:#cccbc9;}.cls-3{fill:#a19f9d;}</style></defs><g id="Insta"><circle class="cls-1" cx="265" cy="265" r="253.46"/><path class="cls-2" d="M376.1,432.16h-220A57.18,57.18,0,0,1,99,375V155a57.18,57.18,0,0,1,57.17-57.17h220A57.18,57.18,0,0,1,433.27,155V375A57.18,57.18,0,0,1,376.1,432.16ZM366.81,265a100.71,100.71,0,1,0-100.7,100.7A100.69,100.69,0,0,0,366.81,265Z"/><circle class="cls-3" cx="374.8" cy="156.16" r="17.08"/><circle class="cls-3" cx="266.11" cy="265" r="79.58"/></g></svg>