<svg xmlns="http://www.w3.org/2000/svg" width="530" height="530" viewBox="0 0 530 530"><defs><style>.cls-1{fill:none;stroke:#a19f9d;stroke-miterlimit:10;stroke-width:6.55px;}.cls-2{fill:#a19f9d;}.cls-3{fill:#8a8a8a;}</style></defs><g id="Plants"><circle class="cls-1" cx="264.26" cy="264.53" r="253.46"/><path class="cls-2" d="M223.14,117C244.6,107,285,38.36,339.47,60.61,359.94,69,383.42,91.66,379,103.92a11.67,11.67,0,0,1-5,5.84c-97.65,62.41-84.35,65.34-81.32,71.63,12.87,26.68,89.16-75.76,107.83-53.13,27.15,32.91,35.17,77,24.74,77.71-85,6-118,2.07-118.57,15.5-.75,16.51,72.67.41,104.54,42.39,28.35,37.36,1.36,84-9.89,79.35-83.23-34.5-94.81-26.34-96.13-17.09-3.08,21.47,92.92,22.94,75.11,66.84-31.59,77.83-11.07,74.18-12.77,75.21-2.86,1.73-23.34-24-78.06-20.91-70.73,4,15.34-68.9,5.28-74.22-24.82-13.13-41.58,44.64-56.9,57.52-4.64,3.9-65.17-12.55-55.25-34.06,15.64-33.88,84.45-59.74,76.14-69.2-19.24-21.88-61.45,32.55-88.07,47.78-15.46,8.85-45.22-27.44-40.15-48.25,20.05-82.37,117.12-58,107.28-79-14.1-30.17-99,20.18-116.36,58.36-8.87,19.49-63.68-79.13-51.36-96,24.8-34,154.8-7.63,154.79-14-.1-36.93-118.59-31.06-141.61-23.15a10.31,10.31,0,0,1-5,.2c-15.06-3.47-11.14-42.53,11.36-57C138,85,204,125.9,223.14,117Z"/><path class="cls-3" d="M288.34,328.68c-7.34,22.19,30.39,27.43,43.45,33.41,11.56,5.28,24.47,16,21.15,30.18-2.49,10.65-7.75,20.23-7.73,31.42,0,.88.66,3.11.84,1,.93-11.19,7.51-20.88,8.89-32,1.12-9-.63-18-6.4-25.14-6.75-8.38-16.89-13-26.85-16.29-6.16-2.06-12.43-3.78-18.44-6.24-4.23-1.73-15.83-6.74-14.29-13.14.15-.66-.36-4-.62-3.19Z"/><path class="cls-3" d="M147.58,335.51C147,327,154.05,319.3,159.81,314a124,124,0,0,1,18.81-14.14c12.55-7.83,26.16-13.85,39.88-19.3,12.69-5,26.66-10.16,35.25-21.42,5.73-7.5,10.14-20.53,5.94-29.76-.51-1.12-.66,2.81-.61,3.18,2.05,17.2-12.76,29.1-26.62,35.91-12.56,6.18-25.81,10.85-38.33,17.15-12,6-23.51,13.12-33.49,22.11-8.55,7.7-14.89,16.82-13.72,28.7.22,2.26.75.28.66-.88Z"/><path class="cls-3" d="M382.51,263.81c6.5,6.4,11.31,12.24,14.57,21a89.16,89.16,0,0,1,5.49,34.69l.81-2.27A116.46,116.46,0,0,0,358.57,298c-16-3-34-3.47-47.21,7.3-.62.5.06,3.82.2,3.74,13.48-7.28,31.67-6.46,46.36-4.16a103.66,103.66,0,0,1,45.24,18.55c.71.53.79-2.08.8-2.26a108.2,108.2,0,0,0-4.54-36.69c-2.57-8.3-7.47-21.88-16.89-24.58-.47-.13-.45,3.53,0,3.95Z"/><path class="cls-3" d="M253,352.05c-9.51,3.37-16.94,8.86-24.85,15s-17.67,12.27-23.64,20.62c-3.26,4.56-3.58,11.53,1,15.27,7.05,5.83,17.09,11.69,26.18,13.06.7.11.7-4.75-.13-5.23-7.12-4.12-14.69-7.2-21.54-11.82-1.21-.82-2.85-2.6-4.26-3.05-.76-1.16-1.25-1.14-1.46.08a18.21,18.21,0,0,1,1.4-1.87,62.51,62.51,0,0,1,7.88-8.06c6.14-5.39,12.72-10.26,19-15.47,6.54-5.4,12.9-11.88,20.52-15.72.58-.29.14-2.93-.07-2.85Z"/><path class="cls-3" d="M259.29,107c8.54-6.9,16-14.23,25.71-19.59,9.53-5.23,20-9.13,30.81-10.31,9.83-1.07,19.92.21,28.82,4.68,9.41,4.73,15.14,12,20,21.06.62,1.16.73-3.49.58-4.08-5.13-20.3-27.61-30.08-47-28.71-21.75,1.53-46.5,14.54-59.31,32.43-.52.73-.07,4.88.38,4.52Z"/><path class="cls-3" d="M337.12,183.36c13.11-7.27,25.54-15.62,38.13-23.77,2.5-1.62,5-3.24,7.48-4.9,3-2,6.72-6.54,10.21-3.78,5.11,4.05,10.52,11.82,10.7,18.38,0,.85.59,3.06.82,1A23.49,23.49,0,0,0,401,155.14a40.3,40.3,0,0,0-7.91-9.76c-3.16-2.6-5.15-.22-8.28,1.74-16.32,10.25-32.63,20.74-47.94,32.43-.67.51.09,3.87.21,3.81Z"/><path class="cls-3" d="M95.36,159.72c13-2.11,25.54-7.33,38.63-9.64s26.85-3.06,40-.28c12.45,2.62,24.18,8.18,35,14.77,10.09,6.15,19.16,14.07,29.79,19.27.31.15.68-4.36,0-5-8.92-8.82-20.36-15.06-31.11-21.4-10.31-6.08-21.26-11.3-33-13.91-12.85-2.87-26.15-2.36-39,0-13.47,2.45-28.09,5.91-40.44,11.94-.74.36-.45,4.37.1,4.28Z"/><path class="cls-3" d="M132.59,217.06c-11.47-3-23.61-4.9-35.52-4.17-3.83.23-8.65.45-11.65,3.21-2.53,2.33-2.75,6.1-2.67,9.31.21,8.76,3.61,18,7.12,25.91,3.67,8.3,8.74,17.95,16.23,23.43.32.24.36-2.4.1-2.82-4.62-7.49-9.64-14.6-13.56-22.53a100.5,100.5,0,0,1-4.56-10.81c-1-2.86-4.24-9.84-3.58-13,1.33-6.26,17.13-5.73,21.39-6.08a173.24,173.24,0,0,1,26.76-.17c.3,0,.38-2.2-.06-2.31Z"/></g></svg>