<svg xmlns="http://www.w3.org/2000/svg" width="530" height="530" viewBox="0 0 530 530"><defs><style>.cls-1{fill:none;stroke:#a19f9d;stroke-miterlimit:10;stroke-width:6.55px;}.cls-2{fill:#a19f9d;}.cls-3{fill:#8a8a8a;}</style></defs><g id="Roasters"><circle class="cls-1" cx="265.74" cy="264.53" r="253.46"/><path class="cls-2" d="M145.83,97.3s-152.27,144.52-19.65,214c88.9,46.57,148.39-109.59,167.43-166.8,8.11-24.38.34-51.56-17.3-70.24C254.57,51.24,214.89,38.83,145.83,97.3Z"/><path class="cls-2" d="M346.48,361.4s39.71,115-63.55,113.5c-69.21-1-61.75-117-52.7-155.4,3.85-16.37,17.51-32.53,35.2-34.58C309.46,279.83,326.35,306.79,346.48,361.4Z"/><path class="cls-3" d="M266,307.6l8.14,23.11a59.61,59.61,0,0,1,3,26.43l-3.94,35.2a52.32,52.32,0,0,0,8.33,34.79l19.28,29.19a.89.89,0,0,0,1.59-.74L292,426a69.49,69.49,0,0,1-3.79-27.17l2.7-45.71a47.6,47.6,0,0,0-11.55-34l-11-12.71A1.36,1.36,0,0,0,266,307.6Z"/><path class="cls-2" d="M420.33,181.5s57.94,99.53-38.22,117c-64.45,11.73-78.76-97.31-77.4-134.62.58-15.91,10.3-33.42,26.35-38.56C371,112.55,391.63,134.49,420.33,181.5Z"/><path class="cls-3" d="M267.42,89.33l-77,30.72a34.84,34.84,0,0,0-21.92,32.35v30.91a58,58,0,0,1-18.63,42.59l-48.11,44.47a2,2,0,0,0,2.16,3.39L157.16,252a64,64,0,0,0,39.78-60l-.3-26.73a44.86,44.86,0,0,1,18.29-36.67l52.74-38.78A.26.26,0,0,0,267.42,89.33Z"/><path class="cls-3" d="M334.93,146.65l-2.52,19.94a33.25,33.25,0,0,0,18.28,33.84l10.62,5.34a36.43,36.43,0,0,1,19.95,28.44L385,268.38a1.75,1.75,0,0,0,3.46,0l4.4-37.3a33.42,33.42,0,0,0-18.7-33.87L359.52,190a32.29,32.29,0,0,1-17.36-21.74l-5-21.74A1.15,1.15,0,0,0,334.93,146.65Z"/></g></svg>