<svg xmlns="http://www.w3.org/2000/svg" viewBox="0 0 530 530">
  <defs>
    <style>
      .cls-1 {
        fill: none;
        stroke: #a19f9d;
        stroke-miterlimit: 10;
        stroke-width: 6.55px;
      }

      .cls-2 {
        fill: #cccbc9;
      }

      .cls-3 {
        fill: #a19f9d;
      }
    </style>
  </defs>
  <g id="Shopping">
    <circle class="cls-1" cx="264.26" cy="264.53" r="253.46"/>
    <g>
      <g>
        <path class="cls-2" d="M166.05,164c20.45,8.45,106.88,40.11,211.11,50.3a5.82,5.82,0,0,1,5.07,7.23L323.77,448.49c-3,8.46-11.24,13.46-20.23,13.5-68.69.28-143.1,8.16-189.5-70.74a15.7,15.7,0,0,1-1.76-11.66l47.66-212.38A4.5,4.5,0,0,1,166.05,164Z"/>
        <path class="cls-2" d="M172.35,169.61S217.38,29.45,314.26,55c89.23,23.48,58,163.2,58,163.2H360.1S388.5,80.44,304.7,65.69c-82.17-14.47-116.52,106.6-119.3,109.47A72.25,72.25,0,0,1,172.35,169.61Z"/>
      </g>
      <path class="cls-3" d="M235.38,450.32l33.33-1.57a55.07,55.07,0,0,1,10.19.46l13.34,1.86a18.09,18.09,0,0,0,10.49-1.69l5.91-2.91A16.82,16.82,0,0,0,318,431.38V417l-3.89,12.44a14.86,14.86,0,0,1-5.89,7.87l-3.82,2.56a17,17,0,0,1-13.21,2.44L280.91,440a32.11,32.11,0,0,0-17.54.88Z"/>
      <path class="cls-3" d="M149.15,264.78l6.74-5.72a25.28,25.28,0,0,0,8.71-22.55l-1-7.94a60.4,60.4,0,0,1,.88-20.68l1.84-8.4a11.89,11.89,0,0,1,18.32-7.3l3.29,2.24a24.09,24.09,0,0,0,14.77,4.14l13.43-.68a29.77,29.77,0,0,1,17.22,4.44l25.5,15.82-19.23-7.07a43.49,43.49,0,0,0-23.67-1.81l-3.31.68a40.52,40.52,0,0,1-28.89-5l-3-1.77a2.86,2.86,0,0,0-4.33,2.52l.26,11.51A78.81,78.81,0,0,0,178,229.7l2.68,14.56a13.83,13.83,0,0,1-10.69,16Z"/>
    </g>
  </g>
</svg>
